<svg width="880" height="200" viewBox="0 0 880 200" fill="none" xmlns="http://www.w3.org/2000/svg">
<rect x="4.5" y="4.5" width="871" height="191" fill="#CCC4B3" stroke="#32302F" stroke-width="9"/>
<rect x="280" width="600" height="200" fill="#32302F"/>
<path d="M48.1868 95.6763C44.5885 100.56 42.6622 106.528 41.8236 109.882C45.0792 109.882 51.2943 109.29 57.2135 109.882C63.1327 110.474 69.1999 112.25 77.4868 115.062C85.7737 117.873 93.6166 123.201 97.0201 125.272C100.424 127.344 110.338 132.079 116.258 135.039C122.177 137.999 139.638 143.178 146.149 144.806C152.661 146.433 166.571 149.245 174.71 149.837C182.848 150.429 190.395 151.465 196.759 150.577C201.963 149.851 206.115 149.85 209.781 151.317C214.22 153.093 219.399 154.868 221.619 155.312C223.839 155.756 227.242 155.904 228.722 154.868C230.202 153.832 231.386 152.501 232.57 150.577C233.754 148.653 235.529 145.989 236.565 142.29C237.601 138.59 237.009 137.703 237.009 136.223C237.009 134.743 235.973 132.819 235.973 130.304C235.973 127.788 235.973 126.16 238.045 124.384C240.045 122.67 243.052 121.063 242.632 117.281C242.188 113.286 242.78 112.102 243.224 109.882C243.632 107.846 245 100.264 245 97.0082C245 93.7526 243.668 83.838 233.31 73.3314C222.951 62.8248 212.592 57.2016 198.534 51.2824C184.476 45.3632 175.597 43.5874 166.127 42.5516C156.656 41.5157 146.741 42.7193 136.383 45.0672C125.284 47.5829 112.262 52.3182 102.791 57.2016C92.5823 62.4656 80.8903 67.8561 69.1999 75.995C58.4734 83.4629 51.785 90.793 48.1868 95.6763Z" fill="#504945"/>
<path d="M164.943 161.379C174.769 160.196 185.117 154.967 189.064 152.501C185.512 152.501 170.566 151.613 156.36 149.837C142.154 148.061 127.8 141.846 116.849 137.999C105.899 134.151 90.657 123.349 78.0787 118.169C65.5004 112.99 50.2585 111.658 44.1913 112.25C38.1241 112.842 31.465 115.062 31.0211 123.349C30.5772 131.635 37.2363 135.927 41.8236 137.259C48.7787 139.278 58.9893 139.478 65.9443 138.738C71.5084 138.147 78.2267 137.801 80.8903 137.703C84.1952 139.38 92.2552 143.503 98.056 146.581C105.307 150.429 127.8 158.716 136.087 160.048C144.374 161.379 152.661 162.859 164.943 161.379Z" fill="#504945"/>
<mask id="mask0_8_58" style="mask-type:alpha" maskUnits="userSpaceOnUse" x="31" y="42" width="214" height="120">
<path d="M48.1868 95.6763C44.5885 100.56 42.6622 106.528 41.8236 109.882C45.0792 109.882 51.2943 109.29 57.2135 109.882C63.1327 110.474 69.1999 112.25 77.4868 115.062C85.7737 117.873 93.6166 123.201 97.0201 125.272C100.424 127.344 110.338 132.079 116.258 135.039C122.177 137.999 139.638 143.178 146.149 144.806C152.661 146.433 166.571 149.245 174.71 149.837C182.848 150.429 190.395 151.465 196.759 150.577C201.963 149.851 206.115 149.85 209.781 151.317C214.22 153.093 219.399 154.868 221.619 155.312C223.839 155.756 227.242 155.904 228.722 154.868C230.202 153.832 231.386 152.501 232.57 150.577C233.754 148.653 235.529 145.989 236.565 142.29C237.601 138.59 237.009 137.703 237.009 136.223C237.009 134.743 235.973 132.819 235.973 130.304C235.973 127.788 235.973 126.16 238.045 124.384C240.045 122.67 243.052 121.063 242.632 117.281C242.188 113.286 242.78 112.102 243.224 109.882C243.632 107.846 245 100.264 245 97.0082C245 93.7526 243.668 83.838 233.31 73.3314C222.951 62.8248 212.592 57.2016 198.534 51.2824C184.476 45.3632 175.597 43.5874 166.127 42.5516C156.656 41.5157 146.741 42.7193 136.383 45.0672C125.284 47.5829 112.262 52.3182 102.791 57.2016C92.5823 62.4656 80.8903 67.8561 69.1999 75.995C58.4734 83.4629 51.785 90.793 48.1868 95.6763Z" fill="#504945"/>
<path d="M164.943 161.379C174.769 160.196 185.117 154.967 189.064 152.501C185.512 152.501 170.566 151.613 156.36 149.837C142.154 148.061 127.8 141.846 116.849 137.999C105.899 134.151 90.657 123.349 78.0787 118.169C65.5004 112.99 50.2585 111.658 44.1913 112.25C38.1241 112.842 31.465 115.062 31.0211 123.349C30.5772 131.635 37.2363 135.927 41.8236 137.259C48.7787 139.278 58.9893 139.478 65.9443 138.738C71.5084 138.147 78.2267 137.801 80.8903 137.703C84.1952 139.38 92.2552 143.503 98.056 146.581C105.307 150.429 127.8 158.716 136.087 160.048C144.374 161.379 152.661 162.859 164.943 161.379Z" fill="#504945"/>
</mask>
<g mask="url(#mask0_8_58)">
<path d="M57.8054 123.793C63.843 126.634 75.711 134.25 80.8903 137.703C76.6482 138.097 67.2761 138.946 63.7246 139.182C59.2852 139.478 48.4827 139.714 41.2317 137.111C35.4605 135.039 33.6847 132.375 31.909 128.38C30.976 126.281 31.761 123.793 32.5009 122.461C33.2408 121.129 34.5726 118.465 39.7519 118.169C44.9312 117.873 50.2585 120.241 57.8054 123.793Z" fill="#32302F"/>
<path d="M132.5 53C139.751 49.1612 139.737 46.213 143.634 43.5V46.843C143.584 50.5424 143.515 58.8885 143.634 62.6768C143.782 67.4122 145.41 84.5778 145.41 100.264C145.41 112.812 143.042 134.398 141.858 143.622C141.463 143.572 140.053 143.267 137.567 142.438C134.459 141.402 128.392 139.33 121.881 137.111C115.37 134.891 99.0918 126.604 94.6524 123.792C90.213 120.981 79.4105 115.802 72.3075 113.434C66.625 111.54 62.4394 110.929 58 110.485C58.5919 107.427 61.8771 99.2388 70.2823 90.952C80.7889 80.5934 105.058 67.5712 110.237 65.0555C115.416 62.5398 125.249 56.8388 132.5 53Z" fill="#3C3836"/>
<path d="M149.849 44.4753C144.783 42.3272 146.398 47.0724 141.858 44.4753C145.393 49.7718 161.835 56.6097 171.454 66.9683C177 72.9411 191.597 93.7361 202.086 118.613C212.444 143.182 201.469 143.348 210.817 156.2C210.969 155.998 218.132 159.831 226.503 166.411C228.752 168.179 239.81 170.5 240.99 165.142C242.17 159.784 242.523 142.457 242.096 136.939C241.669 131.421 245.29 120.83 246.628 115.062C247.698 110.447 247.599 109.438 246.628 104.999C244.556 95.5284 239.214 89.4024 224.727 78.5107C209.598 67.137 197.942 59.7907 181.665 53.6501C165.387 47.5095 157.15 47.5711 149.849 44.4753Z" fill="#3C3836"/>
</g>
<path d="M145.613 49.3905C147.912 49.0108 149.963 48.1818 151.42 47.1002C152.83 46.0535 153.922 44.5678 153.644 42.8886C153.367 41.2094 151.855 40.1537 150.184 39.6158C148.457 39.0599 146.248 38.9346 143.949 39.3142C141.65 39.6939 139.598 40.5229 138.142 41.6045C136.732 42.6512 135.64 44.1369 135.917 45.8161C136.195 47.4953 137.706 48.551 139.378 49.0889C141.105 49.6448 143.314 49.7702 145.613 49.3905Z" fill="#32302F" stroke="#CCC4B3" stroke-width="2"/>
<path d="M345 67.5765L359.24 82.8193H345V149.83H362.261V86.1266L421.379 149.83H427.133V49.1702H409.872V112.586L350.897 49.1702H345V67.5765Z" fill="#FABD2F"/>
<path d="M444.632 65.2757H461.893L444.632 79.2243V149.83H509.791V133.724H461.893V107.553H499.435V91.4472H461.893V65.2757H509.791V49.1702H444.632V65.2757Z" fill="#FABD2F"/>
<path d="M549.903 119.344H561.986L555.657 133.437L563.137 151.268H566.157L589.747 97.0554L613.337 151.268H616.357L658.79 49.1702H640.666L614.344 112.011L591.329 60.0989H588.309L565.15 112.011L538.684 49.1702H520.704L549.903 119.344Z" fill="#FABD2F"/>
<path d="M682.076 77.7863C681.644 76.9235 681.501 76.0607 681.501 75.0541C681.501 64.9881 689.843 61.9683 698.474 61.9683C707.823 61.9683 716.454 65.8509 723.07 72.4657L734.434 59.8113C725.228 50.6082 712.138 45 699.049 45C684.234 45 670.425 51.6148 665.966 64.9881L682.076 77.7863ZM682.795 79.2243H664.959C669.993 107.265 720.481 106.259 720.481 124.665C720.481 134.156 709.118 137.032 701.494 137.032C691.569 137.032 681.357 134.443 675.028 125.959L661.651 136.456C670.856 148.679 686.103 154 700.919 154C718.18 154 737.454 144.797 737.454 125.24C737.454 93.029 690.85 92.1662 682.795 79.2243Z" fill="#FABD2F"/>
<path d="M740.285 49.1702L764.45 93.3166L781.136 93.8918L773.8 107.265H773.512V149.83H790.773V109.854L824 49.1702H805.445L782.143 92.0224L758.84 49.1702H740.285Z" fill="#FABD2F"/>
</svg>
